<?xml version="1.0" encoding="iso-8859-1"?>
<!-- Uploaded to: SVG Repo, www.svgrepo.com, Generator: SVG Repo Mixer Tools -->
<svg version="1.1" id="Layer_1" xmlns="http://www.w3.org/2000/svg" xmlns:xlink="http://www.w3.org/1999/xlink" 
	 viewBox="0 0 512 512" xml:space="preserve">
<rect x="57.905" y="213.934" style="fill:#FE9901;" width="395.961" height="278.148"/>
<rect x="430.247" y="213.934" style="fill:#EA8500;" width="23.615" height="278.148"/>
<polygon style="fill:#ED2601;" points="256.015,19.912 8.211,213.934 503.818,213.934 "/>
<polygon style="fill:#C91C00;" points="239.765,36.162 466.814,213.934 503.818,213.934 256.015,19.912 237.133,34.696 
	239.383,36.461 "/>
<polygon style="fill:#FFFFFF;" points="311.049,117.758 273.256,117.758 273.256,79.965 238.772,79.965 238.772,117.758 
	200.979,117.758 200.979,152.241 238.772,152.241 238.772,190.034 273.256,190.034 273.256,152.241 311.049,152.241 "/>
<rect x="94.861" y="293.696" style="fill:#ED2601;" width="108.448" height="198.387"/>
<rect x="179.669" y="293.696" style="fill:#C91C00;" width="23.642" height="198.387"/>
<rect x="234.071" y="293.696" style="fill:#37CC8F;" width="182.829" height="117.76"/>
<rect x="393.291" y="293.696" style="fill:#2AA86F;" width="23.615" height="117.76"/>
<path d="M311.165,109.938h-29.971V79.965c0-4.319-3.502-7.821-7.821-7.821h-34.484c-4.319,0-7.821,3.502-7.821,7.821v29.972h-29.972
	c-4.319,0-7.821,3.502-7.821,7.821v34.483c0,4.319,3.502,7.821,7.821,7.821h29.972v29.972c0,4.319,3.502,7.821,7.821,7.821h34.483
	c4.319,0,7.821-3.502,7.821-7.821v-29.972h29.972c4.319,0,7.821-3.502,7.821-7.821v-34.483
	C318.985,113.439,315.484,109.938,311.165,109.938z M303.344,144.42h-29.971c-4.319,0-7.821,3.502-7.821,7.821v29.972h-18.843
	v-29.972c0-4.319-3.502-7.821-7.821-7.821h-29.972v-18.842h29.972c4.319,0,7.821-3.502,7.821-7.821V87.785h18.842v29.972
	c0,4.319,3.502,7.821,7.821,7.821h29.972V144.42z"/>
<path d="M504.179,484.266h-42.377V221.755h42.131c3.337,0,6.306-2.117,7.393-5.271c1.088-3.153,0.055-6.651-2.571-8.708
	L260.952,13.755c-2.832-2.217-6.81-2.217-9.642,0L3.506,207.777c-2.627,2.057-3.66,5.554-2.571,8.708
	c1.088,3.154,4.056,5.271,7.393,5.271h41.87v176.757c0,4.319,3.502,7.821,7.821,7.821s7.821-3.502,7.821-7.821V221.76h380.322
	v262.506H211.247V293.7c0-4.319-3.502-7.821-7.821-7.821H94.979c-4.319,0-7.821,3.502-7.821,7.821v190.566H65.839v-59.946
	c0-4.319-3.502-7.821-7.821-7.821s-7.821,3.502-7.821,7.821v59.946H7.821c-4.319,0-7.821,3.502-7.821,7.821s3.502,7.821,7.821,7.821
	h50.198H94.98h108.448h250.555h50.197c4.319,0,7.821-3.502,7.821-7.821S508.498,484.266,504.179,484.266z M256.13,29.845
	l225.129,176.269H31.002L256.13,29.845z M102.799,484.266V301.521h92.807v182.745H102.799z"/>
<path d="M354.064,301.521c4.319,0,7.821-3.502,7.821-7.821s-3.502-7.821-7.821-7.821H234.188c-4.319,0-7.821,3.502-7.821,7.821
	v117.761c0,4.319,3.502,7.821,7.821,7.821H417.02c4.319,0,7.821-3.502,7.821-7.821V293.7c0-4.319-3.502-7.821-7.821-7.821h-37.279
	c-4.319,0-7.821,3.502-7.821,7.821s3.502,7.821,7.821,7.821H409.2v102.12h-167.19v-102.12H354.064z"/>
<path d="M177.154,372.733c-4.319,0-7.821,3.502-7.821,7.821v24.679c0,4.319,3.502,7.821,7.821,7.821s7.821-3.502,7.821-7.821
	v-24.679C184.975,376.234,181.473,372.733,177.154,372.733z"/>
</svg>