<?xml version="1.0" encoding="iso-8859-1"?>
<!-- Uploaded to: SVG Repo, www.svgrepo.com, Generator: SVG Repo Mixer Tools -->
<svg height="800px" width="800px" version="1.1" id="Layer_1" xmlns="http://www.w3.org/2000/svg" xmlns:xlink="http://www.w3.org/1999/xlink" 
	 viewBox="0 0 512.002 512.002" xml:space="preserve">
<polygon style="fill:#FED9A8;" points="256.002,385.996 335.014,310.176 300.905,294.67 295.77,263.273 256.703,250.259 
	256.703,249.765 256.002,250.013 255.302,249.765 255.302,250.259 216.235,263.273 211.1,294.67 176.991,310.176 "/>
<path style="fill:#37CC8F;" d="M495.438,395.132c-2.705-31.14-24.412-57.155-54.16-64.913l-99.981-26.073l-85.295,81.85
	l-85.295-81.85l-99.981,26.073c-29.749,7.758-51.454,33.774-54.16,64.913L7.839,495.583h247.114h2.1h247.114L495.438,395.132z"/>
<path style="fill:#2AA86F;" d="M495.438,395.132c-2.705-31.14-24.412-57.155-54.16-64.913l-99.981-26.073l-5.056,4.852
	l81.374,21.221c29.749,7.758,51.454,33.774,54.16,64.913l8.728,100.452h23.662L495.438,395.132z"/>
<path style="fill:#FE9901;" d="M319.771,244.409H192.234c-28.575,0-51.739-23.165-51.739-51.739V91.115
	c0-41.254,33.443-74.697,74.697-74.697h81.622c41.254,0,74.697,33.443,74.697,74.697v101.553
	C371.51,221.244,348.345,244.409,319.771,244.409z"/>
<path style="fill:#ED8803;" d="M296.814,16.419h-23.662c41.254,0,74.697,33.444,74.697,74.698v101.553
	c0,28.575-23.165,51.739-51.739,51.739h23.662c28.575,0,51.739-23.165,51.739-51.739V91.115
	C371.51,49.861,338.067,16.419,296.814,16.419z"/>
<path style="fill:#FED9A8;" d="M285.982,133.077c-47.245,0-89.752-14.266-119.298-37.005v99.202
	c0,33.995,31.182,73.734,64.149,82.034l0,0c21.42,5.393,27.687,5.429,49.125,0.107l0.979-0.243
	c33.081-8.213,64.384-48.007,64.384-82.092v-69.912C326.95,130.271,306.931,133.077,285.982,133.077z"/>
<path style="fill:#F7CA94;" d="M321.658,130.29v64.79c0,34.085-31.303,73.879-64.384,82.092l-0.979,0.243
	c-4.852,1.205-8.923,2.133-12.573,2.788c12.272,2.22,19.796,1.294,36.236-2.788l0.979-0.243
	c33.081-8.214,64.384-48.007,64.384-82.092v-69.912C337.701,127.285,329.793,128.999,321.658,130.29z"/>
<g>
	<path style="fill:#FEC373;" d="M353.428,180.802h-8.107V137.11h8.107c6.909,0,12.508,5.601,12.508,12.508v18.675
		C365.936,175.201,360.336,180.802,353.428,180.802z"/>
	<path style="fill:#FEC373;" d="M158.577,180.802h8.107V137.11h-8.107c-6.909,0-12.508,5.601-12.508,12.508v18.675
		C146.067,175.201,151.668,180.802,158.577,180.802z"/>
</g>
<path style="fill:#333333;" d="M205.357,169.933c-4.328,0-7.837-3.509-7.837-7.837v-6.28c0-4.328,3.509-7.837,7.837-7.837
	c4.328,0,7.837,3.509,7.837,7.837v6.28C213.194,166.424,209.685,169.933,205.357,169.933z"/>
<path style="fill:#333333;" d="M306.536,169.933c-4.328,0-7.837-3.509-7.837-7.837v-6.28c0-4.328,3.509-7.837,7.837-7.837
	s7.837,3.509,7.837,7.837v6.28C314.373,166.424,310.864,169.933,306.536,169.933z"/>
<path d="M511.972,494.906l-8.728-100.452c-2.986-34.378-27.095-63.239-59.99-71.818l-99.982-26.073
	c-2.634-0.686-5.439,0.043-7.403,1.929l-2.45,2.351l-25.459-11.573l-2.377-14.535c9.64-6.145,18.499-14.322,25.893-23.667
	c27.518-5.502,47.869-30.014,47.869-58.4V91.115c0-45.51-37.024-82.534-82.534-82.534H215.19c-27.43,0-52.998,13.578-68.393,36.322
	c-2.426,3.584-1.487,8.456,2.097,10.882c3.585,2.426,8.456,1.487,10.882-2.097c12.475-18.432,33.191-29.434,55.413-29.434h81.622
	c36.868,0,66.861,29.993,66.861,66.861v40.955c-3.013-1.767-6.508-2.797-10.246-2.797h-0.271v-4.106
	c0-2.449-1.145-4.757-3.095-6.239s-4.478-1.968-6.84-1.311c-18.207,5.058-37.465,7.623-57.241,7.623
	c-43.563,0-85.304-12.895-114.519-35.379c-2.366-1.822-5.561-2.14-8.241-0.821c-2.678,1.319-4.376,4.046-4.376,7.031v33.201h-0.271
	c-3.739,0-7.233,1.031-10.246,2.797V91.115c0-4.814,0.513-9.617,1.526-14.274c0.92-4.23-1.764-8.403-5.992-9.322
	c-4.232-0.921-8.403,1.764-9.322,5.992c-1.25,5.75-1.883,11.672-1.883,17.604v101.553c0,28.296,20.278,52.797,47.698,58.367
	c7.422,9.433,16.335,17.686,26.035,23.878l-2.348,14.357l-25.459,11.573l-2.45-2.351c-1.964-1.885-4.768-2.615-7.403-1.929
	l-99.982,26.073c-32.895,8.578-57.003,37.44-59.99,71.818L0.029,494.906c-0.19,2.188,0.546,4.355,2.031,5.975
	c1.484,1.619,3.58,2.54,5.776,2.54H95.85c0.004,0,0.007,0,0.011,0c0.003,0,0.007,0,0.01,0h320.256c0.003,0,0.007,0,0.01,0
	c0.004,0,0.007,0,0.012,0h88.014c2.196,0,4.291-0.922,5.776-2.54C511.425,499.261,512.163,497.093,511.972,494.906z
	 M363.674,192.668c0,14.44-7.144,27.523-18.237,35.574c0.882-1.954,1.692-3.925,2.434-5.907c0.108-0.284,0.212-0.569,0.316-0.854
	c0.254-0.7,0.504-1.399,0.74-2.101c0.246-0.725,0.48-1.45,0.704-2.174c0.107-0.347,0.214-0.694,0.317-1.042
	c0.287-0.971,0.557-1.94,0.806-2.91c0.052-0.204,0.101-0.408,0.151-0.611c0.55-2.206,1.001-4.403,1.351-6.589
	c0.02-0.126,0.043-0.253,0.062-0.379c0.166-1.072,0.305-2.141,0.422-3.206c0.019-0.171,0.037-0.342,0.054-0.512
	c0.109-1.061,0.195-2.116,0.255-3.167c0.008-0.145,0.013-0.289,0.02-0.434c0.054-1.098,0.09-2.192,0.09-3.278v-6.442h0.271
	c3.739,0,7.233-1.031,10.246-2.797V192.668z M353.428,144.947c2.576,0,4.672,2.096,4.672,4.672v18.675
	c0,2.576-2.096,4.672-4.672,4.672h-0.271v-28.019L353.428,144.947L353.428,144.947z M153.904,149.618
	c0-2.576,2.096-4.672,4.672-4.672h0.271v28.019h-0.271c-2.576,0-4.672-2.096-4.672-4.672V149.618z M148.33,192.668v-6.828
	c3.013,1.767,6.508,2.797,10.246,2.797h0.271v6.637c0,1.087,0.034,2.181,0.09,3.279c0.007,0.137,0.011,0.274,0.019,0.411
	c0.06,1.053,0.146,2.112,0.256,3.175c0.017,0.161,0.033,0.322,0.051,0.483c0.117,1.07,0.257,2.143,0.424,3.22
	c0.018,0.116,0.038,0.232,0.056,0.348c0.355,2.226,0.814,4.464,1.377,6.71c0.033,0.134,0.065,0.267,0.099,0.401
	c0.26,1.019,0.544,2.04,0.846,3.06c0.079,0.271,0.162,0.54,0.244,0.81c0.283,0.924,0.579,1.846,0.895,2.77
	c0.146,0.429,0.303,0.856,0.457,1.284c0.17,0.474,0.346,0.949,0.526,1.423c0.694,1.844,1.445,3.679,2.259,5.498
	C155.424,220.085,148.33,207.04,148.33,192.668z M177.438,212.899c-0.039-0.123-0.077-0.247-0.116-0.369
	c-0.236-0.761-0.451-1.521-0.659-2.281c-0.076-0.279-0.153-0.559-0.225-0.838c-0.16-0.615-0.304-1.23-0.444-1.843
	c-0.087-0.38-0.176-0.761-0.255-1.139c-0.111-0.53-0.207-1.057-0.303-1.585c-0.078-0.433-0.161-0.866-0.23-1.296
	c-0.08-0.502-0.144-1.002-0.21-1.503c-0.057-0.434-0.121-0.869-0.168-1.301c-0.061-0.556-0.1-1.108-0.142-1.659
	c-0.028-0.364-0.067-0.73-0.087-1.091c-0.05-0.911-0.079-1.819-0.079-2.72v-14.474V137.11v-26.087
	c30.661,19.122,70.4,29.89,111.462,29.89c15.435,0,30.593-1.463,45.252-4.358c2.094-0.414,4.177-0.857,6.25-1.328v1.883v43.692
	v14.278c0,0.905-0.029,1.816-0.08,2.731c-0.021,0.368-0.06,0.741-0.089,1.111c-0.043,0.549-0.082,1.097-0.142,1.649
	c-0.048,0.443-0.114,0.89-0.173,1.336c-0.065,0.49-0.128,0.979-0.206,1.47c-0.071,0.449-0.158,0.902-0.24,1.353
	c-0.093,0.508-0.185,1.016-0.292,1.524c-0.085,0.406-0.181,0.814-0.274,1.221c-0.134,0.583-0.271,1.165-0.422,1.749
	c-0.082,0.317-0.169,0.633-0.256,0.951c-0.195,0.713-0.399,1.426-0.619,2.139c-0.054,0.177-0.111,0.353-0.166,0.531
	c-6.509,20.501-22.995,40.883-41.623,51.159c-0.194,0.107-0.389,0.208-0.583,0.312c-0.58,0.312-1.163,0.613-1.747,0.906
	c-0.276,0.138-0.551,0.279-0.827,0.412c-0.699,0.337-1.4,0.659-2.103,0.968c-0.299,0.131-0.596,0.254-0.894,0.378
	c-0.556,0.233-1.113,0.457-1.671,0.67c-0.232,0.089-0.464,0.183-0.696,0.267c-0.76,0.279-1.521,0.537-2.283,0.778
	c-0.209,0.066-0.417,0.13-0.625,0.192c-0.808,0.245-1.616,0.476-2.426,0.678l-0.194,0.048l-0.785,0.194
	c-9.525,2.366-16.268,3.734-22.542,3.734c-1.389,0-2.789-0.068-4.231-0.195c-3.705-0.326-7.698-1.064-12.521-2.176
	c-1.876-0.433-3.869-0.918-6.03-1.463c-0.809-0.204-1.617-0.439-2.425-0.686c-0.199-0.061-0.397-0.121-0.596-0.185
	c-0.765-0.245-1.53-0.507-2.292-0.789c-0.212-0.078-0.424-0.165-0.637-0.247c-0.598-0.23-1.194-0.471-1.79-0.724
	c-0.248-0.106-0.495-0.207-0.744-0.316c-0.739-0.325-1.476-0.667-2.21-1.025c-0.212-0.103-0.424-0.212-0.636-0.318
	c-0.723-0.363-1.445-0.736-2.162-1.128c-0.06-0.032-0.119-0.064-0.18-0.096C200.431,253.898,183.919,233.431,177.438,212.899z
	 M214.343,301.804c2.383-1.084,4.068-3.286,4.491-5.869l2.215-13.543c0.122,0.047,0.243,0.089,0.366,0.135
	c0.403,0.153,0.807,0.304,1.212,0.448c0.874,0.314,1.747,0.611,2.618,0.886c0.215,0.068,0.432,0.131,0.648,0.196
	c1.011,0.307,2.021,0.597,3.027,0.849c10.84,2.729,18.668,4.309,26.608,4.309c7.877,0,15.615-1.539,26.319-4.196l0.49-0.121
	l0.49-0.121c1.001-0.249,2.005-0.533,3.01-0.835c0.241-0.072,0.483-0.142,0.724-0.217c0.867-0.272,1.736-0.562,2.605-0.872
	c0.448-0.159,0.894-0.327,1.341-0.496c0.14-0.053,0.28-0.101,0.419-0.156l2.245,13.734c0.423,2.584,2.108,4.786,4.491,5.869
	l23.585,10.722l-65.245,62.609l-65.245-62.609L214.343,301.804z M141.823,376.102c5.987,0,10.859,5.023,10.859,11.195
	c0,6.172-4.871,11.195-10.859,11.195c-5.988,0-10.858-5.022-10.858-11.195S135.835,376.102,141.823,376.102z M423.322,487.748
	l-6.108-68.852c-0.382-4.311-4.183-7.496-8.499-7.114c-4.31,0.382-7.496,4.188-7.114,8.499l5.986,67.466h-303.17l2.422-27.302
	c0.382-4.31-2.802-8.116-7.114-8.498c-4.303-0.38-8.116,2.802-8.498,7.114l-2.545,28.686H16.386l7.988-91.937
	c2.415-27.788,21.837-51.099,48.33-58.009l61.282-15.98v39.805c-10.817,3.394-18.695,13.618-18.695,25.672
	c0,14.815,11.902,26.868,26.532,26.868s26.533-12.053,26.533-26.868c0-12.054-7.879-22.278-18.696-25.672v-43.892l18.784-4.898
	l3.12,2.995l0,0l76.601,73.506v50.673c0,4.328,3.509,7.837,7.837,7.837c4.328,0,7.837-3.509,7.837-7.837v-50.673l76.601-73.506l0,0
	l3.12-2.995l10.122,2.639v46.971c-15.566,0.659-28.03,13.689-28.03,29.619v68.058c0,2.833,1.529,5.445,3.999,6.832l14.668,8.24
	c1.214,0.682,2.531,1.006,3.832,1.006c2.741,0,5.401-1.44,6.839-4c2.12-3.773,0.779-8.551-2.994-10.67l-10.669-5.994v-63.472
	c0-7.707,6.097-13.977,13.592-13.977h13.202c7.495,0,13.592,6.27,13.592,13.977v63.472l-10.668,5.994
	c-3.773,2.12-5.114,6.897-2.994,10.67c2.119,3.773,6.897,5.114,10.67,2.994l14.667-8.24c2.47-1.388,3.999-4,3.999-6.832v-68.058
	c0-15.929-12.464-28.96-28.03-29.619v-42.883l69.944,18.239c26.493,6.909,45.915,30.221,48.33,58.009l7.988,91.937L423.322,487.748
	L423.322,487.748z"/>
<path d="M103.29,411.782c-4.309-0.38-8.117,2.802-8.499,7.114l-1.284,14.478c-0.382,4.311,2.802,8.117,7.114,8.499
	c0.236,0.021,0.469,0.031,0.702,0.031c4.014,0,7.435-3.07,7.797-7.144l1.284-14.478C110.786,415.97,107.6,412.165,103.29,411.782z"
	/>
<path d="M205.413,147.979c-4.328,0-7.837,3.509-7.837,7.837v6.28c0,4.328,3.509,7.837,7.837,7.837s7.837-3.509,7.837-7.837v-6.28
	C213.249,151.487,209.741,147.979,205.413,147.979z"/>
<path d="M306.592,169.933c4.328,0,7.837-3.509,7.837-7.837v-6.28c0-4.328-3.509-7.837-7.837-7.837s-7.837,3.509-7.837,7.837v6.28
	C298.755,166.424,302.264,169.933,306.592,169.933z"/>
</svg>